#N canvas 142 69 985 481 10;
#X obj 731 75 tgl 50 0 empty empty START -8 -20 0 24 -258113 -1 -1
0 1;
#X obj 636 392 hsl 250 30 0 1 0 0 empty empty MAIN_VOLUME 45 -20 0
24 -262130 -1 -1 12450 1;
#X msg 633 371 0.5;
#X obj 633 350 r l;
#X obj 636 258 hsl 250 30 0 1 0 0 empty empty EMOTION_MANIPULATION
-15 -20 0 24 -260097 -1 -1 0 1;
#X obj 633 293 s scale;
#X obj 731 133 s Start;
#X obj 633 427 s mainVol;
#X obj 173 334 *~;
#X obj 305 317 line~;
#X msg 305 293 \$1 20;
#X obj 173 367 dac~;
#N canvas 2 61 1278 559 SYNTH 0;
#X obj 354 86 inlet;
#X obj 354 492 outlet~;
#X obj 448 327 line~;
#X obj 447 439 vline~;
#X obj 448 305 pack 0 500;
#X obj 860 184 vsl 15 80 20 1000 0 0 empty empty ATTACK 5 -9 0 10 -258113
-33289 -33289 2193 1;
#X obj 952 184 vsl 15 80 0 500 0 0 empty empty SUSTAIN 5 -9 0 10 -257985
-1 -1 3113 1;
#X obj 903 184 vsl 15 80 10 500 0 0 empty empty DECAY 5 -9 0 10 -2368
-1 -1 1451 1;
#X obj 491 135 * 0.99;
#X obj 354 456 *~;
#X msg 833 341 bang;
#X obj 1003 184 vsl 15 80 10 500 0 0 empty empty RELEASE 5 -9 0 10
-132362 -1 -1 1403 1;
#X obj 833 380 pack \$1 \$2 \$3 \$4 \$5;
#X obj 916 341 +;
#X obj 916 309 bng 15 250 50 0 empty empty empty 17 7 0 10 -262144
-1 -1;
#X text 875 451 \$2 ATTACK;
#X text 875 466 \$3 DECAY;
#X text 875 482 \$4 SUSTAIN;
#X text 875 498 \$5 RELEASE;
#X obj 354 413 lop~;
#X obj 510 396 mtof;
#X obj 550 381 hsl 128 15 50 127 0 0 empty empty empty -2 -8 0 10 -262144
-1 -1 9896 1;
#X obj 216 163 osc~;
#X obj 216 135 * 0.5;
#X obj 860 282 f;
#X obj 903 282 f;
#X obj 952 282 f;
#X obj 1003 282 f;
#X obj 876 324 +;
#X obj 354 367 vcf~ 220;
#X obj 488 333 r l;
#X obj 354 163 osc~;
#X obj 491 163 phasor~;
#X msg 833 422 1 \$2 \, 0.9 \$3 \$2 \, 0 \$5 \$4;
#X obj 491 185 *~;
#X obj 661 170 hsl 128 15 0 1 0 0 empty empty empty -2 -8 0 10 -262144
-1 -1 635 1;
#X obj 71 170 hsl 128 15 0 1 0 0 empty empty empty -2 -8 0 10 -262144
-1 -1 1270 1;
#X obj 216 185 *~;
#X text 105 150 OSC 1 VOLUME;
#X text 695 152 OSC 3 VOLUME;
#X obj 434 103 s freq;
#X obj 448 262 r freq;
#X obj 782 324 r freq;
#X text 1036 85 VOLUME ENVELOPE;
#X msg 448 350 3;
#N canvas 77 395 450 300 OSC1 0;
#X obj 155 97 r scale;
#X obj 155 145 outlet;
#X obj 155 119 expr $f1*(0.75) + 0.1;
#X connect 0 0 2 0;
#X connect 2 0 1 0;
#X restore 68 130 pd OSC1 Scaler;
#N canvas 270 347 450 300 OSC3 0;
#X obj 155 97 r scale;
#X obj 155 145 outlet;
#X obj 155 119 expr $f1*(0.85) + 0.05;
#X connect 0 0 2 0;
#X connect 2 0 1 0;
#X restore 658 132 pd OSC3 Scaler;
#N canvas 711 327 450 300 LPF 0;
#X obj 155 97 r scale;
#X obj 155 145 outlet;
#X obj 155 119 expr $f1*(17) + 110;
#X connect 0 0 2 0;
#X connect 2 0 1 0;
#X restore 547 340 pd LPF sScaler;
#X text 562 362 LOW PASS FILTER CUTOFF FREQUENCY;
#N canvas 594 34 450 300 VCF 0;
#X obj 155 97 r scale;
#X obj 155 145 outlet;
#X obj 155 119 expr $f1*(57) + 3;
#X connect 0 0 2 0;
#X connect 2 0 1 0;
#X restore 505 262 pd VCF Attack Scaler;
#N canvas 282 147 450 300 ATTACK 0;
#X obj 155 97 r scale;
#X obj 155 145 outlet;
#X obj 155 119 expr $f1*(-210) + 292;
#X connect 0 0 2 0;
#X connect 2 0 1 0;
#X restore 860 62 pd ATTACK scaler;
#N canvas 185 138 450 300 SUSTAIN 0;
#X obj 155 97 r scale;
#X obj 155 145 outlet;
#X obj 155 119 expr $f1*(-179) + 197;
#X connect 0 0 2 0;
#X connect 2 0 1 0;
#X restore 952 108 pd SUSTAIN scaler;
#N canvas 188 86 450 300 RELEASE 0;
#X obj 155 97 r scale;
#X obj 155 145 outlet;
#X obj 155 119 expr $f1*(-87) + 97;
#X connect 0 0 2 0;
#X connect 2 0 1 0;
#X restore 1003 130 pd RELEASE scaler;
#X text 336 51 SYNTHESIZER;
#X text 248 413 LOW PASS FILTER;
#X text 135 367 VOLTAGE CONTROLLED BANDPASS FILTER;
#N canvas 594 34 450 300 VCF 0;
#X obj 155 97 r scale;
#X obj 155 145 outlet;
#X obj 155 119 expr $f1*(8) + 2;
#X connect 0 0 2 0;
#X connect 2 0 1 0;
#X restore 491 220 pd VCF Central Freq Scaler;
#X text 564 322 Scaling LPF values;
#X text 523 244 Scaling VCF attack values;
#X text 522 202 Scaling VCF central frequency values;
#X obj 354 265 *~ 1;
#X obj 448 283 * 2;
#X text 253 162 OSCILLATOR 1;
#X text 388 162 OSCILLATOR 2;
#X text 543 164 OSCILLATOR 3;
#X text 677 111 Scaling oscillator 3 volume;
#X text 87 111 Scaling oscillator 1 volume;
#X text 857 25 Scaling envelope ADSR values dependig on EMOTION_MANIPULATION
fader;
#N canvas 282 147 450 300 DECAY 0;
#X obj 155 97 r scale;
#X obj 155 145 outlet;
#X obj 155 119 expr $f1*(-78) + 100;
#X connect 0 0 2 0;
#X connect 2 0 1 0;
#X restore 903 85 pd DECAY scaler;
#X text 983 332 Calculation and packaging of ADSR values for vline~
object;
#X connect 0 0 8 0;
#X connect 0 0 23 0;
#X connect 0 0 31 0;
#X connect 0 0 40 0;
#X connect 2 0 29 1;
#X connect 3 0 9 1;
#X connect 4 0 2 0;
#X connect 5 0 24 0;
#X connect 6 0 14 0;
#X connect 6 0 26 0;
#X connect 7 0 14 0;
#X connect 7 0 25 0;
#X connect 8 0 32 0;
#X connect 9 0 1 0;
#X connect 10 0 12 0;
#X connect 11 0 27 0;
#X connect 12 0 33 0;
#X connect 13 0 12 3;
#X connect 14 0 13 0;
#X connect 14 0 28 0;
#X connect 19 0 9 0;
#X connect 20 0 19 1;
#X connect 21 0 20 0;
#X connect 22 0 37 0;
#X connect 23 0 22 0;
#X connect 24 0 12 1;
#X connect 24 0 28 0;
#X connect 25 0 12 2;
#X connect 25 0 28 1;
#X connect 26 0 13 1;
#X connect 27 0 12 4;
#X connect 28 0 13 0;
#X connect 29 0 19 0;
#X connect 30 0 44 0;
#X connect 31 0 60 0;
#X connect 32 0 34 0;
#X connect 33 0 3 0;
#X connect 34 0 60 0;
#X connect 35 0 34 1;
#X connect 36 0 37 1;
#X connect 37 0 60 0;
#X connect 41 0 61 0;
#X connect 42 0 10 0;
#X connect 44 0 29 2;
#X connect 45 0 36 0;
#X connect 46 0 35 0;
#X connect 47 0 21 0;
#X connect 49 0 4 1;
#X connect 50 0 5 0;
#X connect 51 0 6 0;
#X connect 52 0 11 0;
#X connect 56 0 61 1;
#X connect 60 0 29 0;
#X connect 61 0 4 0;
#X connect 68 0 7 0;
#X restore 173 300 pd SYNTH;
#X obj 113 216 s off;
#X obj 112 283 r off;
#X obj 54 19 loadbang;
#X obj 54 41 s l;
#N canvas 562 292 615 303 REVERB 0;
#X obj 327 41 inlet~;
#X obj 327 164 outlet~;
#X floatatom 350 92 5 0 0 0 - - -, f 5;
#X obj 327 137 rev2~, f 16;
#X obj 434 56 r l;
#X obj 350 66 r reVol;
#X msg 373 112 90;
#X msg 403 112 250;
#X msg 434 112 4;
#X obj 75 120 hsl 128 15 0 100 0 0 empty empty empty -2 -8 0 10 -262144
-1 -1 10922 1;
#X obj 72 143 s reVol;
#X obj 34 80 r l;
#X text 123 141 REVERB VOLUME;
#X msg 34 103 86;
#N canvas 0 23 450 300 Reverb 0;
#X obj 106 95 r scale;
#X obj 106 141 outlet;
#X obj 106 119 expr $f1*(-18) + 89;
#X connect 0 0 2 0;
#X connect 2 0 1 0;
#X restore 72 80 pd Reverb Scaler;
#X connect 0 0 3 0;
#X connect 2 0 3 1;
#X connect 3 0 1 0;
#X connect 3 1 1 0;
#X connect 4 0 8 0;
#X connect 4 0 7 0;
#X connect 4 0 6 0;
#X connect 5 0 2 0;
#X connect 6 0 3 2;
#X connect 7 0 3 3;
#X connect 8 0 3 4;
#X connect 9 0 10 0;
#X connect 11 0 13 0;
#X connect 13 0 9 0;
#X connect 14 0 9 0;
#X restore 51 317 pd REVERB;
#N canvas 4 23 1269 730 SEQUENCER 0;
#X obj 115 138 inlet;
#X obj 162 640 outlet;
#X obj 164 155 metro;
#X obj 164 198 f;
#X obj 204 197 + 1;
#X obj 164 220 mod 16;
#X obj 164 266 hradio 16 1 0 16 empty empty empty 0 -8 0 10 -262144
-1 -1 0;
#X obj 458 210 vsl 15 128 21 108 0 0 empty empty empty 0 -9 0 10 -262144
-1 -1 5985 1;
#X obj 162 567 mtof;
#X obj 164 292 select 0 1 2 3 4 5 6 7 8 9 10 11 12 13 14 15;
#X obj 63 500 f;
#X obj 492 210 vsl 15 128 21 108 0 0 empty empty empty 0 -9 0 10 -262144
-1 -1 7007 1;
#X obj 98 500 f;
#X obj 526 210 vsl 15 128 21 108 0 0 empty empty empty 0 -9 0 10 -262144
-1 -1 6569 1;
#X obj 130 500 f;
#X obj 560 210 vsl 15 128 21 108 0 0 empty empty empty 0 -9 0 10 -262144
-1 -1 8321 1;
#X obj 162 500 f;
#X obj 594 210 vsl 15 128 21 108 0 0 empty empty empty 0 -9 0 10 -262144
-1 -1 7737 1;
#X obj 195 500 f;
#X obj 629 210 vsl 15 128 21 108 0 0 empty empty empty 0 -9 0 10 -262144
-1 -1 7007 1;
#X obj 228 500 f;
#X obj 662 210 vsl 15 128 21 108 0 0 empty empty empty 0 -9 0 10 -262144
-1 -1 7737 1;
#X obj 262 500 f;
#X obj 293 500 f;
#X obj 293 500 f;
#X obj 731 210 vsl 15 128 21 108 0 0 empty empty empty 0 -9 0 10 -262144
-1 -1 7007 1;
#X obj 327 500 f;
#X obj 767 210 vsl 15 128 21 108 0 0 empty empty empty 0 -9 0 10 -262144
-1 -1 6715 1;
#X obj 363 500 f;
#X obj 803 210 vsl 15 128 21 108 0 0 empty empty empty 0 -9 0 10 -262144
-1 -1 7737 1;
#X obj 399 500 f;
#X obj 841 210 vsl 15 128 21 108 0 0 empty empty empty 0 -9 0 10 -262144
-1 -1 8321 1;
#X obj 437 500 f;
#X obj 877 210 vsl 15 128 21 108 0 0 empty empty empty 0 -9 0 10 -262144
-1 -1 7737 1;
#X obj 473 500 f;
#X obj 914 210 vsl 15 128 21 108 0 0 empty empty empty 0 -9 0 10 -262144
-1 -1 8467 1;
#X obj 510 500 f;
#X obj 951 210 vsl 15 128 21 108 0 0 empty empty empty 0 -9 0 10 -262144
-1 -1 8321 1;
#X obj 547 500 f;
#X obj 985 210 vsl 15 128 21 108 0 0 empty empty empty 0 -9 0 10 -262144
-1 -1 9489 1;
#X obj 578 500 f;
#X obj 696 210 vsl 15 128 21 108 0 0 empty empty empty 0 -9 0 10 -262144
-1 -1 6569 1;
#X msg 208 155 0;
#X msg 458 166 62;
#X msg 594 166 74;
#X msg 629 166 69;
#X msg 662 166 74;
#X msg 731 166 69;
#X msg 767 166 67;
#X msg 803 166 74;
#X msg 841 166 78;
#X msg 877 166 74;
#X msg 914 166 79;
#X msg 951 166 78;
#X msg 985 166 86;
#X msg 492 166 69;
#X msg 526 166 66;
#X msg 560 166 78;
#X msg 696 166 66;
#X msg 526 53 62;
#X msg 560 53 64;
#X msg 594 53 77;
#X msg 629 53 77;
#X msg 662 53 77;
#X msg 841 53 77;
#X msg 951 53 79;
#X msg 985 53 65;
#X obj 458 120 bng 15 250 50 0 empty empty empty 17 7 0 10 -262144
-1 -1;
#X obj 458 94 r l;
#X obj 194 65 hsl 128 15 140 475 0 0 empty empty empty -2 -8 0 10 -262144
-1 -1 12700 1;
#X floatatom 191 106 5 0 0 0 - - -, f 5;
#N canvas 442 170 450 300 Tempo 0;
#X obj 136 42 r scale;
#X obj 136 64 expr $f1*(-335) + 475;
#X obj 136 86 outlet;
#X connect 0 0 1 0;
#X connect 1 0 2 0;
#X restore 191 41 pd Tempo Scaler;
#X msg 696 53 65;
#N canvas 61 130 450 300 Switch 0;
#X obj 172 57 r scale;
#X obj 172 101 change;
#X obj 172 126 select 1 0;
#X obj 172 160 outlet;
#X obj 224 160 outlet;
#X obj 172 79 < 0.2;
#X connect 0 0 5 0;
#X connect 1 0 2 0;
#X connect 2 0 3 0;
#X connect 2 1 4 0;
#X connect 5 0 1 0;
#X restore 973 557 pd Switch 1;
#N canvas 61 130 450 300 Switch 0;
#X obj 172 57 r scale;
#X obj 172 101 change;
#X obj 172 126 select 1 0;
#X obj 172 160 outlet;
#X obj 224 160 outlet;
#X obj 172 79 < 0.4;
#X connect 0 0 5 0;
#X connect 1 0 2 0;
#X connect 2 0 3 0;
#X connect 2 1 4 0;
#X connect 5 0 1 0;
#X restore 1082 557 pd Switch 2;
#N canvas 61 130 450 300 Switch 0;
#X obj 172 57 r scale;
#X obj 172 101 change;
#X obj 172 126 select 1 0;
#X obj 172 160 outlet;
#X obj 224 160 outlet;
#X obj 172 79 < 0.6;
#X connect 0 0 5 0;
#X connect 1 0 2 0;
#X connect 2 0 3 0;
#X connect 2 1 4 0;
#X connect 5 0 1 0;
#X restore 974 604 pd Switch 3;
#N canvas 61 130 450 300 Switch 0;
#X obj 172 57 r scale;
#X obj 172 101 change;
#X obj 172 126 select 1 0;
#X obj 172 160 outlet;
#X obj 224 160 outlet;
#X obj 172 79 < 0.9;
#X connect 0 0 5 0;
#X connect 1 0 2 0;
#X connect 2 0 3 0;
#X connect 2 1 4 0;
#X connect 5 0 1 0;
#X restore 1082 604 pd Switch 4;
#X msg 492 53 62;
#X obj 973 580 s S11;
#X obj 1036 580 s S10;
#X obj 529 94 r S11;
#X obj 529 23 r S10;
#X obj 699 94 r S11;
#X obj 699 23 r S10;
#X obj 1082 580 s S21;
#X obj 1145 580 s S20;
#X obj 665 94 r S21;
#X obj 597 94 r S21;
#X obj 563 94 r S21;
#X obj 563 23 r S20;
#X obj 597 23 r S20;
#X obj 665 23 r S20;
#X obj 974 628 s S31;
#X obj 1037 628 s S30;
#X obj 844 94 r S31;
#X obj 988 94 r S31;
#X obj 844 23 r S30;
#X obj 988 23 r S30;
#X obj 1082 628 s S41;
#X obj 1145 628 s S40;
#X obj 954 94 r S41;
#X obj 632 94 r S41;
#X obj 495 94 r S41;
#X obj 954 23 r S40;
#X obj 631 23 r S40;
#X obj 495 23 r S40;
#X text 32 41 Initial tempo value;
#X text 186 20 TEMPO MANIPULATION;
#X text 32 138 ON/OFF INPUT;
#X text 230 198 COUNTER - from 0 - 15;
#X text 905 628 SWITCH;
#X text 12 293 Sequence step selection;
#X text 196 568 Convert MIDI note values to frequencies;
#X text 1032 94 Receives SWITCH information;
#X text 1031 22 Receives SWITCH information;
#X text 616 493 Storing MIDI note values \; necessary in order to avoid
interuption of playing sequence;
#X text 174 248 Visual representation of sequence steps;
#X text 11 87 Visual representation of tempo;
#X text 1029 256 Current MIDI note sequence;
#X text 857 659 Selection of MIDI notes in a played sequence \, dependent
on a EMOTION_MANIPULATION fader position (changes the played melody
and modality).;
#X text 392 89 Initialize default sequence;
#X text 1030 166 MIDI note values for tenderness;
#X text 1032 53 MIDI note values for anger;
#X connect 0 0 42 0;
#X connect 0 0 2 0;
#X connect 2 0 3 0;
#X connect 3 0 4 0;
#X connect 3 0 5 0;
#X connect 4 0 3 1;
#X connect 5 0 6 0;
#X connect 6 0 9 0;
#X connect 7 0 10 1;
#X connect 8 0 1 0;
#X connect 9 0 10 0;
#X connect 9 1 12 0;
#X connect 9 2 14 0;
#X connect 9 3 16 0;
#X connect 9 4 18 0;
#X connect 9 5 20 0;
#X connect 9 6 22 0;
#X connect 9 7 23 0;
#X connect 9 8 26 0;
#X connect 9 9 28 0;
#X connect 9 10 30 0;
#X connect 9 11 32 0;
#X connect 9 12 34 0;
#X connect 9 13 36 0;
#X connect 9 14 38 0;
#X connect 9 15 40 0;
#X connect 10 0 8 0;
#X connect 11 0 12 1;
#X connect 12 0 8 0;
#X connect 13 0 14 1;
#X connect 14 0 8 0;
#X connect 15 0 16 1;
#X connect 16 0 8 0;
#X connect 17 0 18 1;
#X connect 18 0 8 0;
#X connect 19 0 20 1;
#X connect 20 0 8 0;
#X connect 21 0 22 1;
#X connect 22 0 8 0;
#X connect 23 0 8 0;
#X connect 25 0 26 1;
#X connect 26 0 8 0;
#X connect 27 0 28 1;
#X connect 28 0 8 0;
#X connect 29 0 30 1;
#X connect 30 0 8 0;
#X connect 31 0 32 1;
#X connect 32 0 8 0;
#X connect 33 0 34 1;
#X connect 34 0 8 0;
#X connect 35 0 36 1;
#X connect 36 0 8 0;
#X connect 37 0 38 1;
#X connect 38 0 8 0;
#X connect 39 0 40 1;
#X connect 40 0 8 0;
#X connect 41 0 23 1;
#X connect 42 0 3 0;
#X connect 43 0 7 0;
#X connect 44 0 17 0;
#X connect 45 0 19 0;
#X connect 46 0 21 0;
#X connect 47 0 25 0;
#X connect 48 0 27 0;
#X connect 49 0 29 0;
#X connect 50 0 31 0;
#X connect 51 0 33 0;
#X connect 52 0 35 0;
#X connect 53 0 37 0;
#X connect 54 0 39 0;
#X connect 55 0 11 0;
#X connect 56 0 13 0;
#X connect 57 0 15 0;
#X connect 58 0 41 0;
#X connect 59 0 13 0;
#X connect 60 0 15 0;
#X connect 61 0 17 0;
#X connect 62 0 19 0;
#X connect 63 0 21 0;
#X connect 64 0 31 0;
#X connect 65 0 37 0;
#X connect 66 0 39 0;
#X connect 67 0 43 0;
#X connect 67 0 55 0;
#X connect 67 0 56 0;
#X connect 67 0 57 0;
#X connect 67 0 44 0;
#X connect 67 0 45 0;
#X connect 67 0 46 0;
#X connect 67 0 58 0;
#X connect 67 0 47 0;
#X connect 67 0 48 0;
#X connect 67 0 49 0;
#X connect 67 0 50 0;
#X connect 67 0 51 0;
#X connect 67 0 52 0;
#X connect 67 0 53 0;
#X connect 67 0 54 0;
#X connect 68 0 67 0;
#X connect 69 0 70 0;
#X connect 70 0 2 1;
#X connect 71 0 69 0;
#X connect 72 0 41 0;
#X connect 73 0 78 0;
#X connect 73 1 79 0;
#X connect 74 0 84 0;
#X connect 74 1 85 0;
#X connect 75 0 92 0;
#X connect 75 1 93 0;
#X connect 76 0 98 0;
#X connect 76 1 99 0;
#X connect 77 0 11 0;
#X connect 80 0 56 0;
#X connect 81 0 59 0;
#X connect 82 0 58 0;
#X connect 83 0 72 0;
#X connect 86 0 46 0;
#X connect 87 0 44 0;
#X connect 88 0 57 0;
#X connect 89 0 60 0;
#X connect 90 0 61 0;
#X connect 91 0 63 0;
#X connect 94 0 50 0;
#X connect 95 0 54 0;
#X connect 96 0 64 0;
#X connect 97 0 66 0;
#X connect 100 0 53 0;
#X connect 101 0 45 0;
#X connect 102 0 55 0;
#X connect 103 0 65 0;
#X connect 104 0 62 0;
#X connect 105 0 77 0;
#X restore 173 237 pd SEQUENCER;
#X text 116 24 Bang to initilize the whole patch;
#X obj 173 175 r Start;
#X obj 305 269 r mainVol;
#X text 181 215 GENERATING NOTE SEQUENCE;
#X text 182 281 GENERATING SOUND;
#X text 48 294 REVERB;
#X obj 390 196 vu 30 240 empty empty -1 -8 0 10 -66577 -1 1 0;
#X obj 305 373 - 100;
#X obj 305 395 s vu;
#X obj 389 161 r vu;
#X obj 305 351 env~;
#X text 548 268 TENDERNESS;
#X text 899 265 ANGER;
#X obj 575 220 r l;
#X msg 575 241 0;
#X msg 76 190 1;
#X obj 113 192 change 1;
#X text 15 116 Making sure the playback stops right after START button
is deactivated;
#X text 456 197 Initialize tenderness as default emotion;
#X text 536 332 Initialise start volume;
#X connect 0 0 6 0;
#X connect 1 0 7 0;
#X connect 2 0 1 0;
#X connect 3 0 2 0;
#X connect 4 0 5 0;
#X connect 8 0 11 0;
#X connect 8 0 11 1;
#X connect 8 0 29 0;
#X connect 9 0 8 1;
#X connect 10 0 9 0;
#X connect 12 0 8 0;
#X connect 12 0 17 0;
#X connect 14 0 12 0;
#X connect 15 0 16 0;
#X connect 17 0 8 0;
#X connect 18 0 12 0;
#X connect 20 0 18 0;
#X connect 20 0 35 0;
#X connect 21 0 10 0;
#X connect 26 0 27 0;
#X connect 28 0 25 0;
#X connect 29 0 26 0;
#X connect 32 0 33 0;
#X connect 33 0 4 0;
#X connect 34 0 35 0;
#X connect 35 0 13 0;
#X connect 35 0 34 0;
